<svg xmlns="http://www.w3.org/2000/svg" xmlns:xlink="http://www.w3.org/1999/xlink" style="width: 0; height: 0; visibility: hidden; position: absolute;" aria-hidden="true"><symbol  viewBox='0 0 20 21' id='bath'>
    <g clip-path="url(#a)" fill="#fff"><path d="M.27 14.262h9.84v1.808h6.152v-1.805h2.443c.159 2.15.171 4.065-2.034 5.525-.027.018-.049.042-.109.095l.803.668-.973.931c-.29-.3-.604-.647-.946-.963-.1-.094-.279-.132-.425-.14-.238-.015-.48.023-.72.024-3.195.002-6.39.002-9.586.002-.153 0-.317.029-.458-.014-.426-.128-.697.07-.95.375-.217.26-.463.495-.688.733l-.884-.93.755-.67c-.2-.143-.351-.243-.494-.354-1.068-.823-1.645-1.914-1.72-3.255-.038-.664-.007-1.332-.007-2.03Zm.006-4.975C.27 9.168.26 9.061.26 8.954c0-1.74-.003-3.48 0-5.22C.264 1.82 1.591.485 3.501.5c.641.005 1.302-.009 1.918.137C6.512.895 7.2 1.653 7.532 2.72c.065.207.148.308.376.37 1.286.348 2.188 1.55 2.205 2.891.003.216 0 .432 0 .667H4.026c-.29-1.535.544-3.12 2.287-3.614-.157-.685-.832-1.263-1.54-1.288a21.512 21.512 0 0 0-1.608 0c-.922.036-1.665.884-1.669 1.9-.006 1.75-.001 3.502-.001 5.253v.386H.275v.001Zm9.817 3.746H.388c-.673 0-1.157-.32-1.328-.863-.256-.819.324-1.607 1.208-1.619.94-.012 1.881-.003 2.822-.003h7.003v2.484Z"></path><path d="M15.024 14.871h-3.66c-.007-.116-.016-.22-.016-.326-.002-1.268-.002-2.537 0-3.805 0-.918.501-1.422 1.415-1.426.339-.001.678-.008 1.017.002.76.024 1.258.536 1.26 1.3.004 1.322.001 2.645 0 3.969 0 .086-.01.171-.016.286Zm1.259-1.851v-2.472c.595 0 1.182-.002 1.768 0 .305.002.617-.023.916.026.652.108 1.076.642 1.05 1.265-.027.612-.478 1.137-1.119 1.17-.859.045-1.722.011-2.614.011Z"></path></g><defs><clippath id="a"><path fill="#fff" transform="translate(-1 .5)" d="M0 0h21.017v21H0z"></path></clippath></defs>
  </symbol><symbol  viewBox='0 0 20 18' id='bed'>
    <g clip-path="url(#a)" fill="#fff"><path d="M10.012 15.96H1.018c-.303 0-.443.138-.443.438 0 .077.004.155-.001.232a2.31 2.31 0 0 1-.033.276c-.065.331-.382.596-.761.592a.774.774 0 0 1-.755-.65 1.68 1.68 0 0 1-.02-.259c-.001-1.761-.013-3.523.004-5.284.01-1.027.389-1.92 1.116-2.663a3.932 3.932 0 0 1 1.568-.977c.472-.16.96-.21 1.458-.21 4.611.002 9.223-.002 13.834.004 1.352.001 2.446.538 3.257 1.605.398.524.636 1.12.717 1.772.028.219.04.442.04.664.004 1.71.003 3.42.002 5.13 0 .268-.067.511-.29.688-.237.187-.5.235-.782.121a.728.728 0 0 1-.478-.601c-.02-.146-.017-.295-.02-.443-.007-.238-.107-.381-.307-.425-.044-.01-.09-.01-.136-.01h-8.976ZM9.902.5h5.833c.651 0 1.26.143 1.785.54.676.509 1.07 1.18 1.103 2.021.028.714.016 1.43.019 2.144.002.46 0 .921 0 1.382a.47.47 0 0 1-.013.124c-.034.125-.103.174-.232.15-.14-.026-.277-.083-.418-.098a18.42 18.42 0 0 0-.997-.078c-.222-.011-.29-.05-.322-.266-.1-.68-.74-1.293-1.56-1.283-.913.01-1.826.002-2.739.002-.68 0-1.26.398-1.49 1.026-.033.09-.046.188-.063.283-.032.17-.096.233-.268.235-.36.004-.72.004-1.08 0-.165-.001-.23-.066-.26-.254a1.448 1.448 0 0 0-.316-.707c-.308-.375-.707-.58-1.198-.581-.942-.005-1.885-.003-2.828-.001-.792 0-1.412.61-1.513 1.279-.032.216-.097.254-.32.268-.367.024-.735.058-1.101.097-.113.012-.22.06-.333.078-.12.02-.176-.02-.21-.137a.511.511 0 0 1-.02-.143c0-1.104-.015-2.209.003-3.314.02-1.155.563-2.005 1.624-2.519C3.408.546 3.864.5 4.326.5h5.576Z"></path></g><defs><clippath id="a"><path fill="#fff" transform="translate(-1 .5)" d="M0 0h22v17H0z"></path></clippath></defs>
  </symbol><symbol  viewBox='0 0 14 17' id='house'>
    <path fill-rule="evenodd" clip-rule="evenodd" d="M1 15V2H.75a.75.75 0 0 1 0-1.5h12.5a.75.75 0 0 1 0 1.5H13v13h.25a.75.75 0 0 1 0 1.5h-3.5a.75.75 0 0 1-.75-.75v-2.5a.75.75 0 0 0-.75-.75h-2.5a.75.75 0 0 0-.75.75v2.5a.75.75 0 0 1-.75.75H.75a.75.75 0 0 1 0-1.5H1ZM4 4a.5.5 0 0 1 .5-.5h1A.5.5 0 0 1 6 4v1a.5.5 0 0 1-.5.5h-1A.5.5 0 0 1 4 5V4Zm.5 3.5A.5.5 0 0 0 4 8v1a.5.5 0 0 0 .5.5h1A.5.5 0 0 0 6 9V8a.5.5 0 0 0-.5-.5h-1ZM8 4a.5.5 0 0 1 .5-.5h1a.5.5 0 0 1 .5.5v1a.5.5 0 0 1-.5.5h-1A.5.5 0 0 1 8 5V4Zm.5 3.5A.5.5 0 0 0 8 8v1a.5.5 0 0 0 .5.5h1A.5.5 0 0 0 10 9V8a.5.5 0 0 0-.5-.5h-1Z" fill="#fff"></path>
  </symbol></svg>