<svg xmlns="http://www.w3.org/2000/svg" xmlns:xlink="http://www.w3.org/1999/xlink" style="width: 0; height: 0; visibility: hidden; position: absolute;" aria-hidden="true">
<symbol  viewBox='0 0 22 18' id='arrow-left'>
    <path fill-rule="evenodd" clip-rule="evenodd" d="M21.5 9c0 .621-.504 1.125-1.125 1.125H4.418l6.237 5.94a1.125 1.125 0 1 1-1.56 1.62L.845 9.812a1.125 1.125 0 0 1 0-1.622L9.095.314a1.125 1.125 0 1 1 1.56 1.622L4.418 7.875h15.957c.621 0 1.125.504 1.125 1.125Z" fill="gray"></path>
  </symbol>
  <symbol  viewBox='0 0 22 18' id='arrow-right'>
    <path fill-rule="evenodd" clip-rule="evenodd" d="M.5 9c0-.621.504-1.125 1.125-1.125h15.957l-6.237-5.94a1.125 1.125 0 1 1 1.56-1.62l8.25 7.874a1.125 1.125 0 0 1 0 1.622l-8.25 7.875a1.125 1.125 0 1 1-1.56-1.622l6.237-5.939H1.625A1.125 1.125 0 0 1 .5 9Z" fill="#fff"></path>
  </symbol>
  <symbol  viewBox='0 0 34 34' id='arrow-topRight'>
    <path d="m6.375 27.625 21.25-21.25m0 0H11.687m15.938 0v15.938" stroke="#4D4D4D" stroke-width="2" stroke-linecap="round" stroke-linejoin="round"></path>
  </symbol>
  <symbol  viewBox='0 0 22 14' id='burger-mob'>
    <path fill-rule="evenodd" clip-rule="evenodd" d="M.5.875C.5.392.892 0 1.375 0h19.25a.875.875 0 0 1 0 1.75H1.375A.875.875 0 0 1 .5.875ZM.5 7c0-.483.392-.875.875-.875h19.25a.875.875 0 0 1 0 1.75H1.375A.875.875 0 0 1 .5 7Zm9.625 6.125c0-.483.392-.875.875-.875h9.625a.875.875 0 0 1 0 1.75H11a.875.875 0 0 1-.875-.875Z" fill="#fff"></path>
  </symbol>
  <symbol  viewBox='0 0 13 24' id='facebook'>
    <path d="M10.744 3.984H13V.168A31.332 31.332 0 0 0 9.712 0C6.448 0 4.216 1.992 4.216 5.64v3.144H.532v4.272h3.684V24h4.416V13.056h3.672l.552-4.272H8.632V6.06c0-1.26.336-2.076 2.112-2.076Z" fill="#fff"></path>
  </symbol>
  <symbol  viewBox='0 0 83 82' id='home'>
    <rect x="1" y=".5" width="81" height="81" rx="40.5" stroke="url(#a)"></rect><rect x="1" y=".5" width="81" height="81" rx="40.5" stroke="url(#b)"></rect><rect x="11" y="10.5" width="61" height="61" rx="30.5" stroke="url(#c)"></rect><rect x="11" y="10.5" width="61" height="61" rx="30.5" stroke="url(#d)"></rect><path d="M29.394 36.106a5.1 5.1 0 0 0 7.856-.786 5.095 5.095 0 0 0 4.25 2.28 5.095 5.095 0 0 0 4.25-2.28 5.1 5.1 0 1 0 7.857-6.426l-.498-.498a3.4 3.4 0 0 0-2.404-.996h-18.41a3.4 3.4 0 0 0-2.404.996l-.497.497a5.1 5.1 0 0 0 0 7.213Zm.206 3.249a7.663 7.663 0 0 0 7.65-.493 7.616 7.616 0 0 0 4.25 1.288 7.616 7.616 0 0 0 4.25-1.289 7.662 7.662 0 0 0 7.65.494V52.05h.425a1.275 1.275 0 1 1 0 2.55h-7.65c-.704 0-1.275-.57-1.275-1.275v-5.95c0-.704-.57-1.275-1.275-1.275h-4.25c-.704 0-1.275.57-1.275 1.275v5.95c0 .704-.57 1.275-1.275 1.275h-7.65a1.275 1.275 0 1 1 0-2.55h.425V39.355Z" fill="#A685FA"></path><defs><lineargradient id="a" x1="7.25" y1="86.5" x2="86.25" y2="-5.5" gradientunits="userSpaceOnUse"><stop stop-color="#A685FA"></stop><stop offset=".324" stop-color="#A685FA" stop-opacity="0"></stop></lineargradient><lineargradient id="b" x1="82.25" y1="-10.5" x2="7.25" y2="82" gradientunits="userSpaceOnUse"><stop stop-color="#A685FA"></stop><stop offset=".577" stop-color="#A685FA" stop-opacity="0"></stop></lineargradient><lineargradient id="c" x1="3.75" y1="13.5" x2="72.25" y2="72" gradientunits="userSpaceOnUse"><stop stop-color="#A685FA"></stop><stop offset=".324" stop-color="#A685FA" stop-opacity="0"></stop></lineargradient><lineargradient id="d" x1="84.75" y1="86" x2="12.75" y2="35" gradientunits="userSpaceOnUse"><stop stop-color="#A685FA"></stop><stop offset=".577" stop-color="#A685FA" stop-opacity="0"></stop></lineargradient></defs>
  </symbol>
  <symbol  viewBox='0 0 20 20' id='linkedin'>
    <path d="M18.47 0H1.53A1.45 1.45 0 0 0 .06 1.43v17.14A1.45 1.45 0 0 0 1.53 20h16.94a1.451 1.451 0 0 0 1.47-1.43V1.43A1.45 1.45 0 0 0 18.47 0ZM6.09 16.74h-3v-9h3v9ZM4.59 6.48a1.56 1.56 0 0 1 0-3.12 1.57 1.57 0 1 1 0 3.12Zm12.32 10.26h-3v-4.83c0-1.21-.43-2-1.52-2A1.65 1.65 0 0 0 10.85 11a1.998 1.998 0 0 0-.1.73v5h-3v-9h3V9a3 3 0 0 1 2.71-1.5c2 0 3.45 1.29 3.45 4.06v5.18Z" fill="#fff"></path>
  </symbol>
  <symbol  viewBox='0 0 49 48' id='logo-desk'>
    <path d="M24.333 48c-13.253 0-24-10.747-24-24h24v24Zm-24-48c13.254 0 24 10.747 24 24h-24V0Zm24 48c13.254 0 24-10.747 24-24h-24v24Zm24-24c0-13.253-10.746-24-24-24v24h24Z" fill="#703BF7"></path>
  </symbol>
  <symbol  viewBox='0 0 35 34' id='logo-lap'>
    <path d="M17.333 34c-9.387 0-17-7.612-17-17h17v17Zm-17-34c9.388 0 17 7.612 17 17h-17V0Zm17 34c9.388 0 17-7.612 17-17h-17v17Zm17-17c0-9.388-7.612-17-17-17v17h17Z" fill="#703BF7"></path>
  </symbol>
  <symbol  viewBox='0 0 28 28' id='logo-mob'>
    <path d="M14 28C6.27 28 0 21.731 0 14h14v14ZM0 0c7.731 0 14 6.269 14 14H0V0Zm14 28c7.731 0 14-6.269 14-14H14v14Zm14-14c0-7.731-6.269-14-14-14v14h14Z" fill="#703BF7"></path>
  </symbol>
  <symbol  viewBox='0 0 24 24' id='mail'>
    <path d="M17 7h1v1a1 1 0 0 0 2 0V7h1a1 1 0 1 0 0-2h-1V4a1 1 0 0 0-2 0v1h-1a1 1 0 1 0 0 2Zm4 4a1 1 0 0 0-1 1v6a1 1 0 0 1-1 1H5a1 1 0 0 1-1-1V8.41l5.88 5.89a3 3 0 0 0 4.24 0l2.47-2.47a1.004 1.004 0 1 0-1.42-1.42l-2.47 2.47a1 1 0 0 1-1.4 0L5.41 7H13a1 1 0 1 0 0-2H5a3 3 0 0 0-3 3v10a3 3 0 0 0 3 3h14a3 3 0 0 0 3-3v-6a1 1 0 0 0-1-1Z" fill="#999"></path>
  </symbol>
  <symbol  viewBox='0 0 83 82' id='management'>
    <rect x="1" y=".5" width="81" height="81" rx="40.5" stroke="url(#a)"></rect><rect x="1" y=".5" width="81" height="81" rx="40.5" stroke="url(#b)"></rect><rect x="11" y="10.5" width="61" height="61" rx="30.5" stroke="url(#c)"></rect><rect x="11" y="10.5" width="61" height="61" rx="30.5" stroke="url(#d)"></rect><path fill-rule="evenodd" clip-rule="evenodd" d="M26.2 28.675c0-.704.571-1.275 1.275-1.275h17.85a1.275 1.275 0 1 1 0 2.55H44.9v23.375c0 .704-.57 1.275-1.275 1.275h-2.55c-.704 0-1.275-.57-1.275-1.275v-4.25c0-.704-.57-1.275-1.275-1.275h-4.25c-.704 0-1.275.57-1.275 1.275v4.25c0 .704-.57 1.275-1.275 1.275h-4.25a1.275 1.275 0 1 1 0-2.55h.425v-22.1h-.425c-.704 0-1.275-.57-1.275-1.275Zm5.1 4.675c0-.47.38-.85.85-.85h1.7c.47 0 .85.38.85.85v1.7c0 .47-.38.85-.85.85h-1.7a.85.85 0 0 1-.85-.85v-1.7Zm.85 5.95a.85.85 0 0 0-.85.85v1.7c0 .47.38.85.85.85h1.7c.47 0 .85-.38.85-.85v-1.7a.85.85 0 0 0-.85-.85h-1.7Zm5.95-5.95c0-.47.38-.85.85-.85h1.7c.47 0 .85.38.85.85v1.7c0 .47-.38.85-.85.85h-1.7a.85.85 0 0 1-.85-.85v-1.7Zm.85 5.95a.85.85 0 0 0-.85.85v1.7c0 .47.38.85.85.85h1.7c.47 0 .85-.38.85-.85v-1.7a.85.85 0 0 0-.85-.85h-1.7Zm9.775-5.1c-.704 0-1.275.57-1.275 1.275V52.9a1.7 1.7 0 0 0 1.7 1.7h6.375a1.275 1.275 0 1 0 0-2.55H55.1v-15.3h.425a1.275 1.275 0 1 0 0-2.55h-6.8Zm.85 5.95c0-.47.38-.85.85-.85h1.7c.47 0 .85.38.85.85v1.7c0 .47-.38.85-.85.85h-1.7a.85.85 0 0 1-.85-.85v-1.7Zm.85 5.95a.85.85 0 0 0-.85.85v1.7c0 .47.38.85.85.85h1.7c.47 0 .85-.38.85-.85v-1.7a.85.85 0 0 0-.85-.85h-1.7Z" fill="#A685FA"></path><defs><lineargradient id="a" x1="7.25" y1="86.5" x2="86.25" y2="-5.5" gradientunits="userSpaceOnUse"><stop stop-color="#A685FA"></stop><stop offset=".324" stop-color="#A685FA" stop-opacity="0"></stop></lineargradient><lineargradient id="b" x1="82.25" y1="-10.5" x2="7.25" y2="82" gradientunits="userSpaceOnUse"><stop stop-color="#A685FA"></stop><stop offset=".577" stop-color="#A685FA" stop-opacity="0"></stop></lineargradient><lineargradient id="c" x1="3.75" y1="13.5" x2="72.25" y2="72" gradientunits="userSpaceOnUse"><stop stop-color="#A685FA"></stop><stop offset=".324" stop-color="#A685FA" stop-opacity="0"></stop></lineargradient><lineargradient id="d" x1="84.75" y1="86" x2="12.75" y2="35" gradientunits="userSpaceOnUse"><stop stop-color="#A685FA"></stop><stop offset=".577" stop-color="#A685FA" stop-opacity="0"></stop></lineargradient></defs>
  </symbol>
  <symbol  viewBox='0 0 30 30' id='send'>
    <path d="M26.784 3.223a2.423 2.423 0 0 0-2.412-.625L4.259 8.409a2.392 2.392 0 0 0-1.728 1.889c-.178.932.442 2.117 1.252 2.612l6.289 3.84a1.635 1.635 0 0 0 2.011-.238l7.201-7.202a.919.919 0 0 1 1.325 0 .943.943 0 0 1 0 1.325l-7.214 7.202a1.638 1.638 0 0 0-.24 2.01l3.842 6.313a2.393 2.393 0 0 0 2.075 1.175c.1 0 .212 0 .312-.013a2.43 2.43 0 0 0 2.038-1.725l5.962-19.962a2.429 2.429 0 0 0-.6-2.412Z" fill="#fff"></path><path opacity=".4" d="M11.815 23.928a.94.94 0 0 1 0 1.326l-1.708 1.706a.93.93 0 0 1-.663.275.936.936 0 0 1-.662-1.6l1.706-1.707a.94.94 0 0 1 1.327 0Zm-.98-4.735a.94.94 0 0 1 0 1.326l-1.708 1.706a.93.93 0 0 1-.662.275.936.936 0 0 1-.662-1.6l1.706-1.707a.94.94 0 0 1 1.326 0Zm-4.702-1.49a.94.94 0 0 1 0 1.326l-1.707 1.706a.93.93 0 0 1-.663.275.936.936 0 0 1-.663-1.6l1.707-1.708a.94.94 0 0 1 1.326 0Z" fill="#fff"></path>
  </symbol>
  <symbol  viewBox='0 0 22 22' id='star'>
    <path d="M10.159 1.31a1 1 0 0 1 1.682 0l3.04 4.731a1 1 0 0 0 .587.427l5.439 1.428a1 1 0 0 1 .52 1.6l-3.56 4.353a1 1 0 0 0-.225.69l.322 5.615a1 1 0 0 1-1.361.989l-5.24-2.042a1 1 0 0 0-.726 0l-5.24 2.042a1 1 0 0 1-1.361-.99l.322-5.613a1 1 0 0 0-.224-.69L.574 9.496a1 1 0 0 1 .52-1.6l5.438-1.429a1 1 0 0 0 .588-.427l3.039-4.731Z" fill="#FFE600"></path>
  </symbol>
  <symbol  viewBox='0 0 83 82' id='sun'>
    <rect x="1" y=".5" width="81" height="81" rx="40.5" stroke="url(#a)"></rect><rect x="1" y=".5" width="81" height="81" rx="40.5" stroke="url(#b)"></rect><rect x="11" y="10.5" width="61" height="61" rx="30.5" stroke="url(#c)"></rect><rect x="11" y="10.5" width="61" height="61" rx="30.5" stroke="url(#d)"></rect><path d="M41.5 27.188c.587 0 1.063.475 1.063 1.062v3.188a1.063 1.063 0 0 1-2.126 0V28.25c0-.587.476-1.063 1.063-1.063ZM35.125 41a6.375 6.375 0 1 1 12.75 0 6.375 6.375 0 0 1-12.75 0Zm16.142-8.264a1.063 1.063 0 0 0-1.503-1.503l-2.254 2.254a1.062 1.062 0 1 0 1.503 1.502l2.254-2.253ZM55.313 41c0 .587-.476 1.063-1.063 1.063h-3.188a1.063 1.063 0 0 1 0-2.126h3.188c.587 0 1.063.476 1.063 1.063Zm-5.549 9.767a1.063 1.063 0 0 0 1.503-1.503l-2.254-2.254a1.062 1.062 0 1 0-1.503 1.503l2.254 2.254ZM41.5 49.5c.587 0 1.063.476 1.063 1.063v3.187a1.063 1.063 0 0 1-2.126 0v-3.188c0-.586.476-1.062 1.063-1.062Zm-6.01-.987a1.063 1.063 0 0 0-1.503-1.503l-2.254 2.254a1.063 1.063 0 0 0 1.503 1.503l2.254-2.254ZM33 41c0 .587-.476 1.063-1.063 1.063H28.75a1.063 1.063 0 0 1 0-2.126h3.188c.586 0 1.062.476 1.062 1.063Zm.987-6.01a1.062 1.062 0 1 0 1.503-1.503l-2.254-2.254a1.063 1.063 0 0 0-1.503 1.503l2.254 2.254Z" fill="#A685FA"></path><defs><lineargradient id="a" x1="7.25" y1="86.5" x2="86.25" y2="-5.5" gradientunits="userSpaceOnUse"><stop stop-color="#A685FA"></stop><stop offset=".324" stop-color="#A685FA" stop-opacity="0"></stop></lineargradient><lineargradient id="b" x1="82.25" y1="-10.5" x2="7.25" y2="82" gradientunits="userSpaceOnUse"><stop stop-color="#A685FA"></stop><stop offset=".577" stop-color="#A685FA" stop-opacity="0"></stop></lineargradient><lineargradient id="c" x1="3.75" y1="13.5" x2="72.25" y2="72" gradientunits="userSpaceOnUse"><stop stop-color="#A685FA"></stop><stop offset=".324" stop-color="#A685FA" stop-opacity="0"></stop></lineargradient><lineargradient id="d" x1="84.75" y1="86" x2="12.75" y2="35" gradientunits="userSpaceOnUse"><stop stop-color="#A685FA"></stop><stop offset=".577" stop-color="#A685FA" stop-opacity="0"></stop></lineargradient></defs>
  </symbol>
  <symbol  viewBox='0 0 103 22' id='text-desk'>
    <path d="M99.154 20.86v-8.006c0-.925-.299-1.687-.896-2.284-.578-.597-1.33-.896-2.255-.896-.617 0-1.166.135-1.648.405-.481.27-.857.645-1.127 1.127s-.405 1.03-.405 1.648l-1.242-.694c0-1.06.23-1.995.693-2.804a4.981 4.981 0 0 1 1.908-1.937c.829-.481 1.754-.722 2.775-.722 1.04 0 1.965.27 2.775.81a5.582 5.582 0 0 1 1.908 2.051 5.27 5.27 0 0 1 .693 2.602v8.7h-3.18Zm-9.51 0V6.986h3.18V20.86h-3.18Zm-6.746 0V6.986h3.18V20.86h-3.18Zm1.59-16.418c-.54 0-.992-.183-1.359-.55-.346-.365-.52-.818-.52-1.358 0-.54.174-.992.52-1.358a1.85 1.85 0 0 1 1.359-.55c.559 0 1.012.184 1.359.55.346.366.52.819.52 1.358 0 .54-.174.993-.52 1.359-.347.366-.8.55-1.359.55ZM73.874 21.15c-1.387 0-2.64-.309-3.757-.926a7.243 7.243 0 0 1-2.63-2.601c-.636-1.099-.954-2.332-.954-3.7 0-1.368.317-2.592.953-3.67A7.087 7.087 0 0 1 70.06 7.65c1.098-.636 2.312-.954 3.642-.954 1.291 0 2.428.298 3.41.896a6.245 6.245 0 0 1 2.342 2.457c.578 1.04.867 2.225.867 3.555 0 .231-.019.472-.057.723a7.15 7.15 0 0 1-.116.78h-11.39v-2.601H78.5l-1.185 1.04c-.038-.848-.202-1.56-.491-2.139a3.077 3.077 0 0 0-1.243-1.33c-.52-.308-1.166-.462-1.937-.462-.81 0-1.513.174-2.11.52a3.537 3.537 0 0 0-1.387 1.475c-.328.616-.492 1.358-.492 2.225s.174 1.629.52 2.284a3.763 3.763 0 0 0 1.475 1.532c.636.347 1.368.52 2.197.52a5.02 5.02 0 0 0 1.965-.376 4.102 4.102 0 0 0 1.561-1.098l2.023 2.052a6.49 6.49 0 0 1-2.457 1.792 7.831 7.831 0 0 1-3.064.607Zm-14.864-.29V1.205h3.18V20.86h-3.18ZM55.686 9.876v-2.89h9.828v2.89h-9.828ZM45.943 21.15c-1.253 0-2.39-.319-3.411-.954a7.007 7.007 0 0 1-2.4-2.573c-.578-1.099-.867-2.322-.867-3.671 0-1.368.29-2.592.868-3.671.597-1.098 1.397-1.966 2.399-2.602 1.021-.655 2.158-.982 3.41-.982 1.06 0 1.995.231 2.804.693a5.044 5.044 0 0 1 1.966 1.85c.482.79.723 1.687.723 2.689v3.989c0 1.002-.241 1.898-.723 2.688a5.044 5.044 0 0 1-1.937 1.878c-.828.444-1.773.665-2.832.665Zm.52-3.007c1.175 0 2.12-.395 2.833-1.185.732-.79 1.098-1.802 1.098-3.035 0-.829-.164-1.56-.491-2.197a3.535 3.535 0 0 0-1.388-1.474c-.578-.366-1.262-.55-2.052-.55-.771 0-1.455.184-2.052.55a3.795 3.795 0 0 0-1.388 1.474c-.328.636-.491 1.368-.491 2.197s.164 1.56.491 2.197c.347.636.81 1.137 1.388 1.503.597.347 1.281.52 2.052.52Zm3.729 2.717v-3.729l.549-3.381-.55-3.353V6.986h3.18V20.86h-3.18Zm-18.479 0V1.205h3.18V20.86h-3.18ZM28.39 9.876v-2.89h9.828v2.89H28.39ZM21.721 21.15c-.77 0-1.512-.097-2.226-.29a8.228 8.228 0 0 1-1.965-.867 6.722 6.722 0 0 1-1.56-1.387l2.022-2.024a4.933 4.933 0 0 0 1.648 1.272c.636.27 1.349.405 2.139.405.713 0 1.253-.106 1.619-.318.366-.212.549-.52.549-.925 0-.424-.174-.752-.52-.983-.347-.231-.8-.424-1.359-.578a49.293 49.293 0 0 0-1.734-.52 9.587 9.587 0 0 1-1.735-.694 3.91 3.91 0 0 1-1.33-1.243c-.346-.52-.52-1.195-.52-2.023 0-.887.203-1.648.608-2.284.423-.636 1.011-1.127 1.763-1.474.77-.347 1.686-.52 2.746-.52 1.117 0 2.1.202 2.948.607.867.385 1.59.973 2.168 1.763l-2.023 2.023a4.032 4.032 0 0 0-1.388-1.127c-.52-.25-1.118-.376-1.792-.376-.636 0-1.127.097-1.474.29-.347.192-.52.471-.52.837 0 .386.173.685.52.897.347.212.79.395 1.33.549.558.154 1.136.327 1.734.52a6.952 6.952 0 0 1 1.734.752 3.74 3.74 0 0 1 1.359 1.271c.346.52.52 1.205.52 2.053 0 1.349-.472 2.418-1.416 3.208-.945.79-2.226 1.185-3.845 1.185ZM.567 20.86V.627h3.324V20.86H.567Zm2.284 0v-3.035h11.33v3.035H2.852Zm0-8.874V9.067h10.348v2.92H2.85Zm0-8.324V.627h11.186v3.035H2.851Z" fill="#fff"></path>
  </symbol>
  <symbol  viewBox='0 0 73 15' id='text-lap'>
    <path d="M70.414 14.693V9.02c0-.655-.211-1.194-.634-1.617-.41-.423-.942-.635-1.597-.635-.437 0-.826.096-1.167.287a2.041 2.041 0 0 0-.799.798c-.191.341-.287.73-.287 1.167l-.88-.491c0-.75.164-1.413.492-1.986a3.529 3.529 0 0 1 1.35-1.372 3.839 3.839 0 0 1 1.966-.512c.737 0 1.393.191 1.966.573a3.949 3.949 0 0 1 1.351 1.454c.328.587.492 1.201.492 1.843v6.163h-2.253Zm-6.736 0V4.865h2.252v9.828h-2.252Zm-4.778 0V4.865h2.252v9.828H58.9Zm1.126-11.63c-.382 0-.703-.13-.962-.389a1.346 1.346 0 0 1-.369-.962c0-.382.123-.703.369-.962.26-.26.58-.39.962-.39.396 0 .717.13.963.39.245.259.368.58.368.962s-.123.703-.368.962c-.246.26-.567.39-.963.39Zm-7.518 11.834c-.983 0-1.87-.218-2.661-.655a5.13 5.13 0 0 1-1.864-1.843c-.45-.777-.675-1.651-.675-2.62 0-.97.225-1.836.675-2.6a5.021 5.021 0 0 1 1.823-1.843 5.056 5.056 0 0 1 2.58-.676c.914 0 1.72.212 2.415.635a4.424 4.424 0 0 1 1.659 1.74c.41.737.614 1.577.614 2.519 0 .163-.014.334-.04.511a4.969 4.969 0 0 1-.083.553h-8.067V8.776h6.9l-.84.737c-.027-.601-.143-1.106-.347-1.515a2.178 2.178 0 0 0-.88-.942c-.37-.219-.826-.328-1.373-.328-.573 0-1.071.123-1.494.369-.423.245-.75.593-.983 1.044-.232.437-.348.962-.348 1.576 0 .615.123 1.154.369 1.618.245.464.593.826 1.044 1.085.45.246.969.369 1.556.369.505 0 .969-.09 1.392-.267a2.907 2.907 0 0 0 1.106-.778l1.433 1.454a4.598 4.598 0 0 1-1.74 1.27 5.548 5.548 0 0 1-2.17.43Zm-10.528-.204V.77h2.252v13.923h-2.253Zm-2.355-7.78V4.864h6.961v2.047h-6.961Zm-6.902 7.984a4.479 4.479 0 0 1-2.416-.675 4.964 4.964 0 0 1-1.7-1.822c-.409-.779-.613-1.645-.613-2.6 0-.97.204-1.837.614-2.601a4.92 4.92 0 0 1 1.7-1.843 4.38 4.38 0 0 1 2.415-.696c.75 0 1.413.164 1.986.492a3.56 3.56 0 0 1 1.392 1.31c.342.56.512 1.194.512 1.904v2.825c0 .71-.17 1.345-.511 1.905a3.572 3.572 0 0 1-1.372 1.33c-.587.315-1.256.471-2.007.471Zm.369-2.129c.832 0 1.501-.28 2.006-.84.519-.559.778-1.276.778-2.15 0-.586-.116-1.105-.348-1.555a2.504 2.504 0 0 0-.983-1.044c-.409-.26-.894-.39-1.453-.39-.546 0-1.03.13-1.454.39-.41.245-.737.593-.983 1.044-.232.45-.348.969-.348 1.556 0 .587.116 1.105.348 1.556.246.45.574.805.983 1.064.423.246.908.37 1.454.37Zm2.641 1.925v-2.641l.389-2.396-.389-2.375V4.865h2.252v9.828h-2.252Zm-13.089 0V.77h2.252v13.923h-2.252Zm-2.355-7.78V4.864h6.962v2.047h-6.962Zm-4.723 7.984a6.015 6.015 0 0 1-1.576-.204 5.831 5.831 0 0 1-1.392-.614 4.76 4.76 0 0 1-1.106-.983l1.433-1.434c.341.396.73.697 1.167.901.45.191.956.287 1.515.287.505 0 .888-.075 1.147-.225.26-.15.389-.369.389-.655a.79.79 0 0 0-.369-.697c-.245-.163-.566-.3-.962-.41a34.924 34.924 0 0 0-1.228-.368 6.78 6.78 0 0 1-1.229-.491 2.769 2.769 0 0 1-.942-.88c-.245-.369-.368-.847-.368-1.434 0-.628.143-1.167.43-1.617.3-.45.716-.799 1.249-1.044.546-.246 1.194-.369 1.945-.369.791 0 1.488.143 2.088.43a3.78 3.78 0 0 1 1.536 1.25L17.86 7.771a2.857 2.857 0 0 0-.983-.798 2.892 2.892 0 0 0-1.27-.266c-.45 0-.798.068-1.044.204-.245.137-.368.335-.368.594 0 .273.123.485.368.635.246.15.56.28.942.389.396.109.805.232 1.228.368.437.123.847.3 1.229.533.396.218.717.518.962.9.246.37.369.854.369 1.454 0 .956-.335 1.713-1.003 2.273-.67.56-1.577.84-2.724.84ZM.582 14.693V.36h2.355v14.332H.582Zm1.618 0v-2.15h8.026v2.15H2.2Zm0-6.286V6.339h7.33v2.068H2.2Zm0-5.897V.36h7.923v2.15H2.2Z" fill="#fff"></path>
  </symbol>
  <symbol  viewBox='0 0 61 13' id='text-mob'>
    <path d="M58.479 12.335v-4.67c0-.54-.175-.984-.523-1.332-.337-.349-.776-.523-1.315-.523-.36 0-.68.079-.961.236-.281.157-.5.376-.658.657a1.934 1.934 0 0 0-.236.962l-.725-.405c0-.618.135-1.164.405-1.636.27-.483.64-.86 1.112-1.13a3.162 3.162 0 0 1 1.62-.42 2.85 2.85 0 0 1 1.618.471c.472.304.843.703 1.113 1.197.27.484.404.99.404 1.518v5.075H58.48Zm-5.548 0V4.242h1.855v8.093h-1.855Zm-3.935 0V4.242h1.855v8.093h-1.855Zm.928-9.577c-.315 0-.58-.107-.793-.32a1.108 1.108 0 0 1-.303-.793c0-.315.1-.579.303-.792.214-.214.478-.32.793-.32.326 0 .59.106.792.32.202.213.304.477.304.792 0 .315-.102.579-.304.793-.202.213-.466.32-.792.32Zm-6.192 9.746c-.809 0-1.54-.18-2.192-.54a4.226 4.226 0 0 1-1.534-1.517c-.37-.641-.556-1.36-.556-2.159 0-.798.185-1.511.556-2.14a4.135 4.135 0 0 1 1.5-1.518 4.164 4.164 0 0 1 2.125-.557c.753 0 1.417.174 1.99.523.584.348 1.04.826 1.366 1.433.337.607.505 1.298.505 2.074 0 .135-.01.275-.033.422a4.066 4.066 0 0 1-.068.455h-6.643V7.462h5.682l-.691.607c-.023-.494-.118-.91-.287-1.247a1.794 1.794 0 0 0-.725-.776c-.303-.18-.68-.27-1.13-.27-.472 0-.882.101-1.23.304a2.062 2.062 0 0 0-.81.86c-.19.36-.286.792-.286 1.298s.1.95.303 1.332c.203.382.49.68.86.894.371.202.798.303 1.282.303.415 0 .798-.073 1.146-.22.36-.145.663-.359.91-.64l1.18 1.197a3.77 3.77 0 0 1-1.432 1.046 4.568 4.568 0 0 1-1.788.354Zm-8.671-.169V.87h1.855v11.466h-1.855Zm-1.939-6.407V4.242h5.733v1.686h-5.733Zm-5.683 6.576c-.73 0-1.394-.186-1.99-.557a4.088 4.088 0 0 1-1.4-1.5c-.337-.641-.505-1.355-.505-2.142 0-.798.168-1.512.506-2.141a4.052 4.052 0 0 1 1.4-1.518 3.608 3.608 0 0 1 1.989-.573c.618 0 1.163.135 1.635.405.484.258.866.618 1.147 1.079.28.46.421.983.421 1.568v2.327c0 .584-.14 1.107-.421 1.568-.27.46-.646.826-1.13 1.096-.483.258-1.034.388-1.652.388Zm.303-1.754c.686 0 1.237-.23 1.653-.691.427-.461.64-1.051.64-1.77 0-.484-.095-.911-.286-1.282a2.063 2.063 0 0 0-.81-.86c-.337-.214-.736-.32-1.197-.32-.45 0-.848.106-1.197.32a2.213 2.213 0 0 0-.81.86c-.19.371-.286.798-.286 1.281 0 .484.096.911.287 1.282.202.37.472.663.81.877a2.34 2.34 0 0 0 1.196.303Zm2.175 1.585V10.16l.32-1.973-.32-1.956v-1.99h1.855v8.094h-1.855Zm-10.779 0V.87h1.855v11.466h-1.855ZM17.2 5.928V4.242h5.733v1.686H17.2Zm-3.89 6.576c-.45 0-.883-.056-1.299-.169a4.802 4.802 0 0 1-1.146-.506 3.923 3.923 0 0 1-.91-.809l1.18-1.18c.28.326.6.573.96.742.372.157.787.236 1.248.236.416 0 .731-.062.945-.186a.59.59 0 0 0 .32-.54.65.65 0 0 0-.303-.573 2.752 2.752 0 0 0-.793-.337A28.779 28.779 0 0 0 12.5 8.88a5.589 5.589 0 0 1-1.011-.405 2.28 2.28 0 0 1-.776-.725c-.202-.304-.303-.697-.303-1.18 0-.517.117-.961.354-1.332a2.42 2.42 0 0 1 1.028-.86c.45-.203.984-.304 1.602-.304.652 0 1.225.118 1.72.354a3.11 3.11 0 0 1 1.264 1.029l-1.18 1.18a2.351 2.351 0 0 0-.81-.658 2.382 2.382 0 0 0-1.045-.219c-.37 0-.657.056-.86.169-.202.112-.303.275-.303.489 0 .225.101.399.303.523a3.2 3.2 0 0 0 .776.32c.326.09.663.191 1.012.303.36.102.697.248 1.011.439.326.18.59.427.793.742.202.303.303.702.303 1.197 0 .787-.275 1.41-.826 1.871-.55.461-1.298.692-2.242.692ZM.97 12.335V.532h1.939v11.803H.969Zm1.332 0v-1.77h6.61v1.77h-6.61Zm0-5.176V5.456h6.036v1.703H2.302Zm0-4.856V.533h6.525v1.77H2.302Z" fill="#fff"></path>
  </symbol>
  <symbol  viewBox='0 0 20 18' id='twitter'>
    <path d="M20 2.8a8.49 8.49 0 0 1-2.36.64 4.13 4.13 0 0 0 1.81-2.27 8.21 8.21 0 0 1-2.61 1 4.1 4.1 0 0 0-7 3.74 11.64 11.64 0 0 1-8.45-4.29 4.16 4.16 0 0 0-.55 2.07A4.09 4.09 0 0 0 2.66 7.1 4.05 4.05 0 0 1 .8 6.59v.05a4.1 4.1 0 0 0 3.3 4 3.933 3.933 0 0 1-1.1.17 4.907 4.907 0 0 1-.77-.07 4.11 4.11 0 0 0 3.83 2.84A8.22 8.22 0 0 1 0 15.28a11.57 11.57 0 0 0 6.29 1.85A11.589 11.589 0 0 0 18 5.45v-.53a8.43 8.43 0 0 0 2-2.12Z" fill="#fff"></path>
  </symbol>
  <symbol  viewBox='0 0 83 82' id='value'>
    <rect x="1" y=".5" width="81" height="81" rx="40.5" stroke="url(#a)"></rect><rect x="1" y=".5" width="81" height="81" rx="40.5" stroke="url(#b)"></rect><rect x="11" y="10.5" width="61" height="61" rx="30.5" stroke="url(#c)"></rect><rect x="11" y="10.5" width="61" height="61" rx="30.5" stroke="url(#d)"></rect><path d="M41.5 34.625a3.188 3.188 0 1 0 0 6.375 3.188 3.188 0 0 0 0-6.375Z" fill="#A685FA"></path><path fill-rule="evenodd" clip-rule="evenodd" d="M26.625 30.906a2.656 2.656 0 0 1 2.656-2.656H53.72a2.656 2.656 0 0 1 2.656 2.656V44.72a2.656 2.656 0 0 1-2.656 2.656H29.28a2.656 2.656 0 0 1-2.656-2.656V30.906Zm9.563 6.907a5.313 5.313 0 1 1 10.625 0 5.313 5.313 0 0 1-10.626 0Zm14.874-1.063c-.586 0-1.062.476-1.062 1.063v.01c0 .587.476 1.063 1.063 1.063h.01c.587 0 1.063-.476 1.063-1.063v-.01c0-.587-.476-1.063-1.063-1.063h-.01Zm-20.187 1.063c0-.587.476-1.063 1.063-1.063h.01c.587 0 1.063.476 1.063 1.063v.01c0 .587-.476 1.063-1.063 1.063h-.01a1.063 1.063 0 0 1-1.063-1.063v-.01Z" fill="#A685FA"></path><path d="M27.688 49.5a1.063 1.063 0 0 0 0 2.125c7.65 0 15.059 1.023 22.1 2.94 1.686.459 3.4-.791 3.4-2.579v-1.423c0-.587-.476-1.063-1.063-1.063H27.687Z" fill="#A685FA"></path><defs><lineargradient id="a" x1="7.25" y1="86.5" x2="86.25" y2="-5.5" gradientunits="userSpaceOnUse"><stop stop-color="#A685FA"></stop><stop offset=".324" stop-color="#A685FA" stop-opacity="0"></stop></lineargradient><lineargradient id="b" x1="82.25" y1="-10.5" x2="7.25" y2="82" gradientunits="userSpaceOnUse"><stop stop-color="#A685FA"></stop><stop offset=".577" stop-color="#A685FA" stop-opacity="0"></stop></lineargradient><lineargradient id="c" x1="3.75" y1="13.5" x2="72.25" y2="72" gradientunits="userSpaceOnUse"><stop stop-color="#A685FA"></stop><stop offset=".324" stop-color="#A685FA" stop-opacity="0"></stop></lineargradient><lineargradient id="d" x1="84.75" y1="86" x2="12.75" y2="35" gradientunits="userSpaceOnUse"><stop stop-color="#A685FA"></stop><stop offset=".577" stop-color="#A685FA" stop-opacity="0"></stop></lineargradient></defs>
  </symbol>
  <symbol  viewBox='0 0 22 16' id='youtube'>
    <path d="M22 5.71a8.499 8.499 0 0 0-.91-4.13 2.92 2.92 0 0 0-1.72-1A78.36 78.36 0 0 0 11 .27a78.45 78.45 0 0 0-8.34.3 2.87 2.87 0 0 0-1.46.74C.3 2.14.2 3.56.1 4.76a48.29 48.29 0 0 0 0 6.48 9.55 9.55 0 0 0 .3 2c.12.505.365.972.71 1.36a2.86 2.86 0 0 0 1.49.78c2.156.266 4.328.376 6.5.33 3.5.05 6.57 0 10.2-.28a2.88 2.88 0 0 0 1.53-.78c.28-.28.49-.623.61-1 .358-1.097.533-2.246.52-3.4.04-.56.04-3.94.04-4.54ZM8.74 10.85V4.66l5.92 3.11c-1.66.92-3.85 1.96-5.92 3.08Z" fill="#fff"></path>
  </symbol>
  </svg>